<?xml version="1.0" standalone="no"?>
<!DOCTYPE svg PUBLIC "-//W3C//DTD SVG 20010904//EN"
 "http://www.w3.org/TR/2001/REC-SVG-20010904/DTD/svg10.dtd">
<svg version="1.0" xmlns="http://www.w3.org/2000/svg"
 width="600.000000pt" height="520.000000pt" viewBox="0 0 600.000000 520.000000"
 preserveAspectRatio="xMidYMid meet">

<g transform="translate(0.000000,520.000000) scale(0.100000,-0.100000)"
fill="#000000" stroke="none">
<path d="M2915 4117 c-51 -29 -253 -176 -431 -313 -415 -319 -850 -710 -898
-806 -44 -88 -39 -129 69 -558 132 -529 305 -1064 401 -1240 52 -95 99 -140
145 -140 66 0 99 73 99 218 l0 67 25 -59 c13 -32 36 -72 51 -87 24 -25 36 -29
80 -29 29 0 76 5 103 11 l51 11 -8 61 c-13 115 -8 774 7 874 l14 92 -83 103
c-46 57 -98 135 -116 173 -18 39 -58 162 -89 274 -30 112 -60 210 -66 217 -20
24 -78 34 -133 22 -58 -12 -116 -62 -116 -99 0 -13 23 -109 51 -214 61 -226
70 -324 45 -481 -31 -193 -20 -337 43 -604 36 -153 56 -319 46 -395 -6 -48 -9
-54 -22 -44 -8 7 -31 44 -50 83 -106 210 -269 723 -402 1264 -107 435 -108
410 22 536 314 304 625 563 1040 865 105 76 180 124 200 128 38 6 73 -16 327
-205 342 -254 636 -501 872 -731 181 -176 181 -176 149 -324 -142 -646 -404
-1475 -505 -1602 l-24 -30 -7 39 c-18 91 4 251 70 531 38 165 43 305 16 492
-27 185 -23 224 49 490 28 102 50 194 50 205 0 11 -16 35 -35 54 -65 61 -192
65 -223 7 -5 -10 -31 -96 -56 -191 -74 -276 -94 -319 -212 -464 -87 -107 -85
-102 -66 -188 13 -62 16 -142 15 -465 0 -224 -5 -408 -10 -432 -12 -49 -11
-50 113 -60 l81 -6 33 40 c19 22 44 67 56 99 l23 59 1 -95 c1 -143 32 -210 96
-210 49 0 95 46 148 150 128 247 331 907 470 1529 37 161 33 221 -18 290 -59
80 -467 448 -716 646 -245 195 -567 430 -616 451 -50 21 -113 17 -159 -9z
m-665 -1387 c59 -223 103 -323 184 -424 l56 -70 -29 -18 c-45 -29 -130 -56
-200 -64 -64 -7 -64 -7 -58 17 21 84 28 204 18 281 -9 64 -68 307 -107 440 -4
13 5 19 38 26 24 5 44 8 44 8 1 -1 25 -89 54 -196z m1637 176 c7 -7 2 -28 -56
-251 -50 -190 -60 -293 -38 -413 17 -100 17 -100 -80 -84 -61 10 -193 63 -193
78 0 3 17 27 39 53 112 134 133 188 240 597 11 42 11 42 47 34 20 -5 38 -11
41 -14z"/>
<path d="M2931 3326 c-67 -24 -68 -26 -74 -323 -6 -305 -8 -314 -94 -517 -109
-261 -126 -388 -121 -906 3 -336 4 -346 26 -387 36 -69 43 -70 341 -70 l264 0
33 29 c58 51 59 63 58 503 0 515 -9 566 -147 900 -58 140 -67 205 -67 491 0
223 0 225 -24 249 -42 41 -128 55 -195 31z m109 -86 c17 0 18 -17 22 -272 l4
-273 36 -100 c20 -55 53 -140 73 -188 20 -48 39 -103 42 -121 5 -33 4 -34 -46
-51 -120 -39 -251 -38 -348 5 l-41 18 15 54 c9 29 38 105 65 168 76 177 80
199 85 497 5 258 5 262 27 266 11 2 27 3 34 1 8 -2 22 -4 32 -4z"/>
</g>
</svg>
